# xmcd
#
# Track frame offsets:
#	225
#	14074
#	28589
#	47214
#	64163
#	77364
#	93590
#	111315
#	126024
#	138726
#
# Disc length: 2082 seconds
#
# Revision: 1
# Processed by: cddbd v1.5.2PL0 Copyright (c) Steve Scherf et al.
# Submitted via: EasyCDDAExtractor 6.0.0.1
#
DISCID=8b081f0a
DTITLE=Amy LaVere - Anchors and Anvils
DYEAR=2007
DGENRE=Country
TTITLE0=Killing Him
TTITLE1=Tennessee Valentine
TTITLE2=That Beat
TTITLE3=Pointless Drinking
TTITLE4=Washing Machine
TTITLE5=Overcome
TTITLE6=People Get Mad
TTITLE7=Cupid's Arrow
TTITLE8=Time Is a Train
TTITLE9=I'll Remember You
EXTD=
EXTT0=
EXTT1=
EXTT2=
EXTT3=
EXTT4=
EXTT5=
EXTT6=
EXTT7=
EXTT8=
EXTT9=
PLAYORDER=
